<svg xmlns="http://www.w3.org/2000/svg" viewBox="0 0 64 64" fill="none">
  <path d="M18.1 28.2c0 .7.1 1.3.2 1.7.2.5.3.9.5 1.4.1.2.1.3.1.4 0 .2-.1.3-.3.5l-1 .7c-.1.1-.3.1-.4.1-.2 0-.3-.1-.5-.3-.2-.2-.4-.5-.6-.8-.2-.3-.3-.7-.5-1.1-1.3 1.5-2.9 2.3-4.8 2.3-1.4 0-2.5-.4-3.3-1.2-.8-.8-1.2-1.9-1.2-3.2 0-1.4.5-2.6 1.5-3.4 1-.9 2.4-1.3 4.1-1.3.6 0 1.1 0 1.7.1.6.1 1.2.2 1.9.4v-1.2c0-1.3-.3-2.2-.8-2.7-.6-.6-1.5-.8-2.8-.8-.6 0-1.2.1-1.8.2-.6.2-1.3.4-1.8.6-.3.1-.5.2-.6.2h-.2c-.2 0-.3-.2-.3-.5v-.8c0-.3 0-.5.1-.6.1-.1.2-.2.5-.3.6-.3 1.3-.6 2.1-.8.8-.2 1.7-.3 2.6-.3 2 0 3.4.4 4.3 1.3.9.9 1.3 2.2 1.3 4v5.3zm-6.6 2.5c.5 0 1.1-.1 1.7-.3.6-.2 1.1-.6 1.5-1.1.3-.3.4-.7.5-1.1.1-.4.2-.9.2-1.5v-.7c-.5-.1-1-.2-1.5-.3-.5-.1-1-.1-1.5-.1-1.1 0-2 .2-2.5.7-.6.5-.8 1.1-.8 2 0 .8.2 1.4.6 1.8.4.4 1 .6 1.8.6zm13.1 1.8c-.3 0-.5 0-.6-.1-.1-.1-.3-.3-.4-.6l-4-13.1c-.1-.2-.1-.4-.1-.5 0-.2.1-.3.3-.3h1.5c.3 0 .5 0 .6.1.1.1.2.3.3.6l2.8 11.2 2.6-11.2c.1-.3.2-.5.3-.6.1-.1.3-.1.6-.1h1.3c.3 0 .5 0 .6.1.1.1.2.3.3.6l2.7 11.3 2.9-11.3c.1-.3.2-.5.3-.6.1-.1.3-.1.6-.1h1.5c.2 0 .3.1.3.3 0 .1 0 .2 0 .2l-.1.3-4.1 13.1c-.1.3-.2.5-.4.6-.1.1-.3.1-.6.1h-1.4c-.3 0-.5 0-.6-.1-.1-.1-.2-.3-.3-.6l-2.6-10.9-2.6 10.8c-.1.3-.2.5-.3.6-.1.1-.4.1-.6.1h-1.4zm20.9.4c-.8 0-1.7-.1-2.5-.3-.8-.2-1.4-.4-1.8-.7-.3-.2-.4-.3-.5-.5 0-.1-.1-.2-.1-.3v-.9c0-.3.1-.5.3-.5.1 0 .2 0 .3.1.1 0 .3.1.4.2.6.3 1.2.5 1.9.6.7.2 1.3.2 2 .2 1 0 1.8-.2 2.4-.6.5-.4.8-.9.8-1.6 0-.5-.1-.9-.4-1.2-.3-.3-.9-.6-1.7-.9l-2.4-.7c-1.2-.4-2.1-.9-2.7-1.6-.5-.6-.8-1.4-.8-2.2 0-.6.1-1.2.4-1.7.3-.5.7-.9 1.1-1.3.5-.3 1-.6 1.6-.8.6-.2 1.3-.3 2-.3.3 0 .7 0 1.1.1.4.1.7.1 1.1.2.3.1.7.2 1 .3.3.1.5.2.7.3.2.1.4.3.5.4.1.2.1.3.1.5v.8c0 .3-.1.5-.3.5-.1 0-.3-.1-.5-.2-.8-.4-1.7-.5-2.7-.5-1 0-1.7.2-2.2.5-.5.3-.7.8-.7 1.5 0 .5.2.9.5 1.2.3.3.9.6 1.8.9l2.4.7c1.2.4 2 .9 2.6 1.5.5.6.8 1.3.8 2.2 0 .7-.1 1.3-.4 1.8-.3.5-.7 1-1.2 1.4-.5.4-1.1.7-1.8.9-.7.2-1.5.3-2.3.3z" fill="#F90"/>
  <path d="M44.7 40.5c-5.2 3.8-12.7 5.9-19.1 5.9-9 0-17.2-3.4-23.3-9-.5-.4-.1-1 .5-.7 6.7 3.9 14.9 6.2 23.4 6.2 5.7 0 12-1.2 17.8-3.7.9-.3 1.6.6.7 1.3z" fill="#F90"/>
  <path d="M46.8 38.1c-.7-.9-4.4-.4-6.1-.2-.5.1-.6-.4-.1-.7 3-2.1 7.9-1.5 8.4-.8.6.7-.2 5.7-2.9 8.1-.4.4-.8.2-.6-.3.6-1.5 2-4.8 1.3-6.1z" fill="#F90"/>
</svg>
