<svg xmlns="http://www.w3.org/2000/svg" viewBox="0 0 64 64" fill="none">
  <path d="M22.4 8h13.8L21.6 52.5c-.3.9-1.1 1.5-2.1 1.5H8.1c-1.3 0-2.3-1-2.3-2.3 0-.3.1-.6.2-.9L20.3 9.5c.3-.9 1.1-1.5 2.1-1.5z" fill="#0078D4"/>
  <path d="M44.6 36.2H25.3c-.6 0-.9.7-.5 1.1l12.5 11.7c.4.4 1 .6 1.5.6h12.6l-6.8-13.4z" fill="#0078D4" opacity="0.7"/>
  <path d="M22.4 8c-1 0-1.9.6-2.2 1.6L6 50.9c-.1.2-.1.5-.1.7 0 1.3 1 2.3 2.3 2.3h12c.9-.1 1.6-.6 2-1.4l3-6.6 10.5 9.8c.5.3 1 .6 1.6.6h12.5l-5.7-12h-18L36 8H22.4z" fill="#0078D4"/>
  <path d="M43.7 9.5c-.3-.9-1.1-1.5-2.1-1.5H22.7c1 0 1.8.6 2.1 1.5l14.3 41.3c.4 1.1-.2 2.3-1.3 2.7-.3.1-.6.1-.8.1h18.9c1.3 0 2.3-1 2.3-2.3 0-.3-.1-.6-.2-.9L43.7 9.5z" fill="#0078D4" opacity="0.7"/>
</svg>
