<svg xmlns="http://www.w3.org/2000/svg" viewBox="0 0 64 64" fill="none">
  <path d="M40.5 21.4h1.8l5.1-5.1.2-2.2C43 10 36.3 7.7 29.5 8.2c-6.8.5-13 4.3-16.6 10.1 .6-.3 1.3-.3 1.9-.1l10.3-1.7s.5-.8 .8-1.2c3.8-4.2 10.2-4.6 14.6-.8z" fill="#EA4335"/>
  <path d="M51.6 18.3c-1.7-4.1-4.6-7.5-8.3-9.9l-7.2 7.2c2.7 2.2 4.3 5.5 4.3 9v1.1c3 0 5.5 2.5 5.5 5.5s-2.5 5.5-5.5 5.5h-11l-1.1 1.1v6.6l1.1 1.1h11c8.7.1 15.8-6.9 15.9-15.6 0-5.2-2.5-10-6.7-12.6z" fill="#4285F4"/>
  <path d="M18.4 44.5h11V34.2h-11c-.8 0-1.5-.2-2.2-.4l-1.5.5-5.1 5.1-.4 1.5c2.5 2.3 5.8 3.6 9.2 3.6z" fill="#34A853"/>
  <path d="M18.4 13.3C9.7 13.4 2.7 20.5 2.8 29.2c0 5.1 2.5 9.9 6.6 12.8l7-7c-3.3-1.5-4.8-5.4-3.3-8.7 1.5-3.3 5.4-4.8 8.7-3.3 1.5.7 2.6 1.8 3.3 3.3l7-7c-3-4.2-7.8-6.8-13.1-7z" fill="#FBBC05"/>
</svg>
